<mxfile host="Electron" modified="2024-04-08T13:06:14.945Z" agent="Mozilla/5.0 (Windows NT 10.0; Win64; x64) AppleWebKit/537.36 (KHTML, like Gecko) draw.io/24.0.4 Chrome/120.0.6099.109 Electron/28.1.0 Safari/537.36" etag="PYJBpQPbH8pILwWKG-a6" version="24.0.4" type="device" pages="3">
  <diagram id="ewehx5Et0dboWa_JOCVb" name="CQRS">
    <mxGraphModel dx="2074" dy="836" grid="1" gridSize="10" guides="1" tooltips="1" connect="1" arrows="1" fold="1" page="1" pageScale="1" pageWidth="827" pageHeight="1169" math="0" shadow="0">
      <root>
        <mxCell id="0" />
        <mxCell id="1" parent="0" />
        <mxCell id="h3mTeg16s-lhEltsc_Q6-1" value="RabbitMQ&lt;br&gt;&lt;br&gt;Producer - Produtor&lt;br&gt;Quem reproduz a mensagem&amp;nbsp;&lt;br&gt;&lt;br&gt;Exchange&lt;br&gt;Quem recebe a mensagem e descide para quem vai enviar&amp;nbsp;&lt;br&gt;&lt;br&gt;Queue&lt;br&gt;Fila que recebe a mensagem e entrega para todos os consumers - Comsumidores&amp;nbsp;&lt;br&gt;&lt;br&gt;Consumer - Consumidor&lt;br&gt;Quem escuta a mensagem&amp;nbsp;&lt;br&gt;&lt;br&gt;Mensagem&lt;br&gt;Dados produzidos e executados&amp;nbsp;&lt;br&gt;&lt;br&gt;Topologia&amp;nbsp;&lt;br&gt;É a estrutura de exchanges e Queues&amp;nbsp;&lt;br&gt;&lt;br&gt;3 Tipos de mensagens&amp;nbsp;&lt;br&gt;Command&lt;br&gt;Query&amp;nbsp;&lt;br&gt;Integration Event&lt;br&gt;" style="shape=note;size=68;whiteSpace=wrap;html=1;align=left;fillColor=#fff2cc;strokeColor=#d6b656;fontStyle=1;sketch=1;curveFitting=1;jiggle=2;" parent="1" vertex="1">
          <mxGeometry x="40" y="40" width="456" height="390" as="geometry" />
        </mxCell>
        <mxCell id="h3mTeg16s-lhEltsc_Q6-6" value="Command" style="rounded=0;whiteSpace=wrap;html=1;fillColor=#d5e8d4;strokeColor=#82b366;sketch=1;curveFitting=1;jiggle=2;" parent="1" vertex="1">
          <mxGeometry x="40" y="540" width="120" height="60" as="geometry" />
        </mxCell>
        <mxCell id="h3mTeg16s-lhEltsc_Q6-7" value="Command Handler" style="shape=hexagon;perimeter=hexagonPerimeter2;whiteSpace=wrap;html=1;fixedSize=1;fillColor=#d5e8d4;strokeColor=#82b366;sketch=1;curveFitting=1;jiggle=2;" parent="1" vertex="1">
          <mxGeometry x="242" y="520" width="120" height="80" as="geometry" />
        </mxCell>
        <mxCell id="h3mTeg16s-lhEltsc_Q6-8" value="" style="endArrow=none;dashed=1;html=1;rounded=0;exitX=1;exitY=0.5;exitDx=0;exitDy=0;entryX=0.058;entryY=0.613;entryDx=0;entryDy=0;entryPerimeter=0;fillColor=#d5e8d4;strokeColor=#82b366;strokeWidth=3;sketch=1;curveFitting=1;jiggle=2;" parent="1" source="h3mTeg16s-lhEltsc_Q6-6" target="h3mTeg16s-lhEltsc_Q6-7" edge="1">
          <mxGeometry width="50" height="50" relative="1" as="geometry">
            <mxPoint x="250" y="620" as="sourcePoint" />
            <mxPoint x="240" y="570" as="targetPoint" />
          </mxGeometry>
        </mxCell>
        <mxCell id="h3mTeg16s-lhEltsc_Q6-9" value="Query" style="rounded=0;whiteSpace=wrap;html=1;fillColor=#fff2cc;strokeColor=#d6b656;sketch=1;curveFitting=1;jiggle=2;" parent="1" vertex="1">
          <mxGeometry x="40" y="700" width="120" height="60" as="geometry" />
        </mxCell>
        <mxCell id="h3mTeg16s-lhEltsc_Q6-10" value="Query&amp;nbsp;Handler" style="shape=hexagon;perimeter=hexagonPerimeter2;whiteSpace=wrap;html=1;fixedSize=1;fillColor=#fff2cc;strokeColor=#d6b656;sketch=1;curveFitting=1;jiggle=2;" parent="1" vertex="1">
          <mxGeometry x="242" y="680" width="120" height="80" as="geometry" />
        </mxCell>
        <mxCell id="h3mTeg16s-lhEltsc_Q6-11" value="" style="endArrow=none;dashed=1;html=1;rounded=0;exitX=1;exitY=0.5;exitDx=0;exitDy=0;entryX=0.058;entryY=0.613;entryDx=0;entryDy=0;entryPerimeter=0;fillColor=#fff2cc;strokeColor=#d6b656;strokeWidth=3;sketch=1;curveFitting=1;jiggle=2;" parent="1" source="h3mTeg16s-lhEltsc_Q6-9" target="h3mTeg16s-lhEltsc_Q6-10" edge="1">
          <mxGeometry width="50" height="50" relative="1" as="geometry">
            <mxPoint x="250" y="780" as="sourcePoint" />
            <mxPoint x="240" y="730" as="targetPoint" />
          </mxGeometry>
        </mxCell>
        <mxCell id="h3mTeg16s-lhEltsc_Q6-12" value="Envia uma query para aplicação&lt;br&gt;Algo que eu precise consultar&amp;nbsp;" style="shape=note;size=20;whiteSpace=wrap;html=1;fillColor=#fff2cc;strokeColor=#d6b656;sketch=1;curveFitting=1;jiggle=2;" parent="1" vertex="1">
          <mxGeometry x="400" y="670" width="150" height="90" as="geometry" />
        </mxCell>
        <mxCell id="h3mTeg16s-lhEltsc_Q6-13" value="Domain Event" style="rounded=0;whiteSpace=wrap;html=1;fillColor=#dae8fc;strokeColor=#6c8ebf;sketch=1;curveFitting=1;jiggle=2;" parent="1" vertex="1">
          <mxGeometry x="40" y="860" width="120" height="60" as="geometry" />
        </mxCell>
        <mxCell id="h3mTeg16s-lhEltsc_Q6-14" value="Domain Event Handler" style="shape=hexagon;perimeter=hexagonPerimeter2;whiteSpace=wrap;html=1;fixedSize=1;fillColor=#dae8fc;strokeColor=#6c8ebf;sketch=1;curveFitting=1;jiggle=2;" parent="1" vertex="1">
          <mxGeometry x="242" y="840" width="120" height="80" as="geometry" />
        </mxCell>
        <mxCell id="h3mTeg16s-lhEltsc_Q6-15" value="" style="endArrow=none;dashed=1;html=1;rounded=0;exitX=1;exitY=0.5;exitDx=0;exitDy=0;entryX=0.058;entryY=0.613;entryDx=0;entryDy=0;entryPerimeter=0;fillColor=#dae8fc;strokeColor=#6c8ebf;strokeWidth=3;sketch=1;curveFitting=1;jiggle=2;" parent="1" source="h3mTeg16s-lhEltsc_Q6-13" target="h3mTeg16s-lhEltsc_Q6-14" edge="1">
          <mxGeometry width="50" height="50" relative="1" as="geometry">
            <mxPoint x="250" y="940" as="sourcePoint" />
            <mxPoint x="240" y="890" as="targetPoint" />
          </mxGeometry>
        </mxCell>
        <mxCell id="h3mTeg16s-lhEltsc_Q6-16" value="Publica para a propria aplicção saber" style="shape=note;size=20;whiteSpace=wrap;html=1;fillColor=#dae8fc;strokeColor=#6c8ebf;sketch=1;curveFitting=1;jiggle=2;" parent="1" vertex="1">
          <mxGeometry x="400" y="830" width="150" height="90" as="geometry" />
        </mxCell>
        <mxCell id="h3mTeg16s-lhEltsc_Q6-18" value="Executa e altera aplicação" style="shape=note;size=20;whiteSpace=wrap;html=1;fillColor=#d5e8d4;strokeColor=#82b366;sketch=1;curveFitting=1;jiggle=2;" parent="1" vertex="1">
          <mxGeometry x="400" y="510" width="150" height="90" as="geometry" />
        </mxCell>
        <mxCell id="h3mTeg16s-lhEltsc_Q6-19" value="Event" style="rounded=0;whiteSpace=wrap;html=1;fillColor=#ffe6cc;strokeColor=#d79b00;sketch=1;curveFitting=1;jiggle=2;" parent="1" vertex="1">
          <mxGeometry x="40" y="1020" width="120" height="60" as="geometry" />
        </mxCell>
        <mxCell id="h3mTeg16s-lhEltsc_Q6-20" value="Event Handler" style="shape=hexagon;perimeter=hexagonPerimeter2;whiteSpace=wrap;html=1;fixedSize=1;fillColor=#ffe6cc;strokeColor=#d79b00;sketch=1;curveFitting=1;jiggle=2;" parent="1" vertex="1">
          <mxGeometry x="242" y="1000" width="120" height="80" as="geometry" />
        </mxCell>
        <mxCell id="h3mTeg16s-lhEltsc_Q6-21" value="" style="endArrow=none;dashed=1;html=1;rounded=0;exitX=1;exitY=0.5;exitDx=0;exitDy=0;entryX=0.058;entryY=0.613;entryDx=0;entryDy=0;entryPerimeter=0;fillColor=#ffe6cc;strokeColor=#d79b00;strokeWidth=3;sketch=1;curveFitting=1;jiggle=2;" parent="1" source="h3mTeg16s-lhEltsc_Q6-19" target="h3mTeg16s-lhEltsc_Q6-20" edge="1">
          <mxGeometry width="50" height="50" relative="1" as="geometry">
            <mxPoint x="250" y="1100" as="sourcePoint" />
            <mxPoint x="240" y="1050" as="targetPoint" />
          </mxGeometry>
        </mxCell>
        <mxCell id="h3mTeg16s-lhEltsc_Q6-22" value="Evento de integração&amp;nbsp;&lt;br&gt;Alguma coisa que aconteceu e eu quero publicar para o resto dos micro serviços&amp;nbsp;" style="shape=note;size=20;whiteSpace=wrap;html=1;fillColor=#ffe6cc;strokeColor=#d79b00;sketch=1;curveFitting=1;jiggle=2;" parent="1" vertex="1">
          <mxGeometry x="400" y="990" width="150" height="90" as="geometry" />
        </mxCell>
        <mxCell id="iiWSE5uUDSvVjRp110FB-13" style="edgeStyle=orthogonalEdgeStyle;rounded=0;orthogonalLoop=1;jettySize=auto;html=1;exitX=0.632;exitY=-0.025;exitDx=0;exitDy=0;exitPerimeter=0;fillColor=#dae8fc;strokeColor=#6c8ebf;strokeWidth=3;sketch=1;curveFitting=1;jiggle=2;" parent="1" edge="1">
          <mxGeometry relative="1" as="geometry">
            <mxPoint x="110" y="1407.08" as="sourcePoint" />
            <mxPoint x="248" y="1542" as="targetPoint" />
            <Array as="points">
              <mxPoint x="110" y="1420" />
              <mxPoint x="248" y="1420" />
            </Array>
          </mxGeometry>
        </mxCell>
        <mxCell id="iiWSE5uUDSvVjRp110FB-1" value="Client" style="rounded=0;whiteSpace=wrap;html=1;rotation=90;verticalAlign=middle;horizontal=0;fontStyle=1;fillColor=#f5f5f5;fontColor=#333333;strokeColor=#666666;sketch=1;curveFitting=1;jiggle=2;" parent="1" vertex="1">
          <mxGeometry x="-15" y="1342" width="190" height="80" as="geometry" />
        </mxCell>
        <mxCell id="iiWSE5uUDSvVjRp110FB-14" style="edgeStyle=orthogonalEdgeStyle;rounded=0;orthogonalLoop=1;jettySize=auto;html=1;entryX=0;entryY=0.5;entryDx=0;entryDy=0;fillColor=#dae8fc;strokeColor=#6c8ebf;strokeWidth=3;sketch=1;curveFitting=1;jiggle=2;" parent="1" source="iiWSE5uUDSvVjRp110FB-2" target="iiWSE5uUDSvVjRp110FB-4" edge="1">
          <mxGeometry relative="1" as="geometry" />
        </mxCell>
        <mxCell id="iiWSE5uUDSvVjRp110FB-2" value="Command" style="rounded=1;whiteSpace=wrap;html=1;fillColor=#f8cecc;strokeColor=#b85450;sketch=1;curveFitting=1;jiggle=2;" parent="1" vertex="1">
          <mxGeometry x="202" y="1162" width="120" height="60" as="geometry" />
        </mxCell>
        <mxCell id="iiWSE5uUDSvVjRp110FB-15" style="edgeStyle=orthogonalEdgeStyle;rounded=0;orthogonalLoop=1;jettySize=auto;html=1;entryX=0;entryY=0.5;entryDx=0;entryDy=0;fillColor=#dae8fc;strokeColor=#6c8ebf;strokeWidth=3;sketch=1;curveFitting=1;jiggle=2;" parent="1" source="iiWSE5uUDSvVjRp110FB-3" target="iiWSE5uUDSvVjRp110FB-5" edge="1">
          <mxGeometry relative="1" as="geometry" />
        </mxCell>
        <mxCell id="iiWSE5uUDSvVjRp110FB-3" value="Query" style="rounded=1;whiteSpace=wrap;html=1;fillColor=#f8cecc;strokeColor=#b85450;sketch=1;curveFitting=1;jiggle=2;" parent="1" vertex="1">
          <mxGeometry x="200" y="1542" width="120" height="60" as="geometry" />
        </mxCell>
        <mxCell id="iiWSE5uUDSvVjRp110FB-16" style="edgeStyle=orthogonalEdgeStyle;rounded=0;orthogonalLoop=1;jettySize=auto;html=1;fillColor=#dae8fc;strokeColor=#6c8ebf;strokeWidth=3;sketch=1;curveFitting=1;jiggle=2;" parent="1" source="iiWSE5uUDSvVjRp110FB-4" target="iiWSE5uUDSvVjRp110FB-6" edge="1">
          <mxGeometry relative="1" as="geometry" />
        </mxCell>
        <mxCell id="iiWSE5uUDSvVjRp110FB-4" value="Command Handler" style="rounded=1;whiteSpace=wrap;html=1;fillColor=#d5e8d4;strokeColor=#82b366;sketch=1;curveFitting=1;jiggle=2;" parent="1" vertex="1">
          <mxGeometry x="442" y="1162" width="120" height="60" as="geometry" />
        </mxCell>
        <mxCell id="iiWSE5uUDSvVjRp110FB-5" value="Query&amp;nbsp;Handler" style="rounded=1;whiteSpace=wrap;html=1;fillColor=#d5e8d4;strokeColor=#82b366;sketch=1;curveFitting=1;jiggle=2;" parent="1" vertex="1">
          <mxGeometry x="442" y="1542" width="120" height="60" as="geometry" />
        </mxCell>
        <mxCell id="iiWSE5uUDSvVjRp110FB-17" style="edgeStyle=orthogonalEdgeStyle;rounded=0;orthogonalLoop=1;jettySize=auto;html=1;fillColor=#dae8fc;strokeColor=#6c8ebf;strokeWidth=3;sketch=1;curveFitting=1;jiggle=2;" parent="1" source="iiWSE5uUDSvVjRp110FB-6" target="iiWSE5uUDSvVjRp110FB-7" edge="1">
          <mxGeometry relative="1" as="geometry" />
        </mxCell>
        <mxCell id="iiWSE5uUDSvVjRp110FB-6" value="Domain" style="rounded=1;whiteSpace=wrap;html=1;fillColor=#f8cecc;strokeColor=#b85450;sketch=1;curveFitting=1;jiggle=2;" parent="1" vertex="1">
          <mxGeometry x="680" y="1162" width="120" height="60" as="geometry" />
        </mxCell>
        <mxCell id="iiWSE5uUDSvVjRp110FB-19" style="edgeStyle=orthogonalEdgeStyle;rounded=0;orthogonalLoop=1;jettySize=auto;html=1;entryX=0.75;entryY=0;entryDx=0;entryDy=0;fillColor=#dae8fc;strokeColor=#6c8ebf;strokeWidth=3;sketch=1;curveFitting=1;jiggle=2;" parent="1" source="iiWSE5uUDSvVjRp110FB-7" target="iiWSE5uUDSvVjRp110FB-9" edge="1">
          <mxGeometry relative="1" as="geometry">
            <Array as="points">
              <mxPoint x="1020" y="1270" />
              <mxPoint x="970" y="1270" />
            </Array>
          </mxGeometry>
        </mxCell>
        <mxCell id="iiWSE5uUDSvVjRp110FB-7" value="Event" style="rounded=1;whiteSpace=wrap;html=1;fillColor=#fff2cc;strokeColor=#d6b656;sketch=1;curveFitting=1;jiggle=2;" parent="1" vertex="1">
          <mxGeometry x="960" y="1162" width="120" height="60" as="geometry" />
        </mxCell>
        <mxCell id="iiWSE5uUDSvVjRp110FB-8" value="Event Store" style="ellipse;whiteSpace=wrap;html=1;fillColor=#dae8fc;strokeColor=#6c8ebf;sketch=1;curveFitting=1;jiggle=2;" parent="1" vertex="1">
          <mxGeometry x="1040" y="1320" width="120" height="80" as="geometry" />
        </mxCell>
        <mxCell id="iiWSE5uUDSvVjRp110FB-20" style="edgeStyle=orthogonalEdgeStyle;rounded=0;orthogonalLoop=1;jettySize=auto;html=1;entryX=0.5;entryY=0;entryDx=0;entryDy=0;fillColor=#dae8fc;strokeColor=#6c8ebf;strokeWidth=3;sketch=1;curveFitting=1;jiggle=2;" parent="1" source="iiWSE5uUDSvVjRp110FB-9" target="iiWSE5uUDSvVjRp110FB-11" edge="1">
          <mxGeometry relative="1" as="geometry" />
        </mxCell>
        <mxCell id="iiWSE5uUDSvVjRp110FB-9" value="Event Handler" style="rounded=1;whiteSpace=wrap;html=1;fillColor=#d5e8d4;strokeColor=#82b366;sketch=1;curveFitting=1;jiggle=2;" parent="1" vertex="1">
          <mxGeometry x="880" y="1340" width="120" height="60" as="geometry" />
        </mxCell>
        <mxCell id="iiWSE5uUDSvVjRp110FB-11" value="Database" style="ellipse;whiteSpace=wrap;html=1;fillColor=#dae8fc;strokeColor=#6c8ebf;sketch=1;curveFitting=1;jiggle=2;" parent="1" vertex="1">
          <mxGeometry x="880" y="1522" width="120" height="80" as="geometry" />
        </mxCell>
        <mxCell id="iiWSE5uUDSvVjRp110FB-12" style="edgeStyle=orthogonalEdgeStyle;rounded=0;orthogonalLoop=1;jettySize=auto;html=1;entryX=0.375;entryY=1;entryDx=0;entryDy=0;entryPerimeter=0;fillColor=#dae8fc;strokeColor=#6c8ebf;strokeWidth=3;sketch=1;curveFitting=1;jiggle=2;" parent="1" source="iiWSE5uUDSvVjRp110FB-1" target="iiWSE5uUDSvVjRp110FB-2" edge="1">
          <mxGeometry relative="1" as="geometry">
            <Array as="points">
              <mxPoint x="247" y="1380" />
            </Array>
          </mxGeometry>
        </mxCell>
        <mxCell id="iiWSE5uUDSvVjRp110FB-18" style="edgeStyle=orthogonalEdgeStyle;rounded=0;orthogonalLoop=1;jettySize=auto;html=1;entryX=0.642;entryY=0.038;entryDx=0;entryDy=0;entryPerimeter=0;fillColor=#dae8fc;strokeColor=#6c8ebf;strokeWidth=3;sketch=1;curveFitting=1;jiggle=2;" parent="1" source="iiWSE5uUDSvVjRp110FB-7" target="iiWSE5uUDSvVjRp110FB-8" edge="1">
          <mxGeometry relative="1" as="geometry">
            <Array as="points">
              <mxPoint x="1040" y="1271" />
              <mxPoint x="1117" y="1271" />
            </Array>
          </mxGeometry>
        </mxCell>
        <mxCell id="iiWSE5uUDSvVjRp110FB-21" style="edgeStyle=orthogonalEdgeStyle;rounded=0;orthogonalLoop=1;jettySize=auto;html=1;entryX=0.008;entryY=0.613;entryDx=0;entryDy=0;entryPerimeter=0;fillColor=#dae8fc;strokeColor=#6c8ebf;strokeWidth=3;sketch=1;curveFitting=1;jiggle=2;" parent="1" source="iiWSE5uUDSvVjRp110FB-5" target="iiWSE5uUDSvVjRp110FB-11" edge="1">
          <mxGeometry relative="1" as="geometry" />
        </mxCell>
        <mxCell id="iiWSE5uUDSvVjRp110FB-23" value="" style="shape=note;size=39;whiteSpace=wrap;html=1;align=left;fillColor=#fff2cc;strokeColor=#d6b656;fontStyle=1;sketch=1;curveFitting=1;jiggle=2;" parent="1" vertex="1">
          <mxGeometry x="474" y="1290" width="202" height="170" as="geometry" />
        </mxCell>
        <mxCell id="iiWSE5uUDSvVjRp110FB-24" value="Event Sourcing With CQRS" style="text;html=1;strokeColor=none;fillColor=none;align=center;verticalAlign=middle;whiteSpace=wrap;rounded=0;sketch=1;curveFitting=1;jiggle=2;" parent="1" vertex="1">
          <mxGeometry x="500" y="1370" width="130" height="30" as="geometry" />
        </mxCell>
        <mxCell id="HLLoZeZULIPI3SQ5oGIm-1" value="CQRS - Pattern" style="rounded=0;whiteSpace=wrap;html=1;sketch=1;curveFitting=1;jiggle=2;strokeWidth=3;" vertex="1" parent="1">
          <mxGeometry x="846" y="20" width="790" height="60" as="geometry" />
        </mxCell>
        <mxCell id="HLLoZeZULIPI3SQ5oGIm-5" value="" style="edgeStyle=orthogonalEdgeStyle;rounded=0;orthogonalLoop=1;jettySize=auto;html=1;sketch=1;curveFitting=1;jiggle=2;strokeWidth=3;" edge="1" parent="1" source="HLLoZeZULIPI3SQ5oGIm-2" target="HLLoZeZULIPI3SQ5oGIm-4">
          <mxGeometry relative="1" as="geometry">
            <Array as="points">
              <mxPoint x="890" y="250" />
            </Array>
          </mxGeometry>
        </mxCell>
        <mxCell id="HLLoZeZULIPI3SQ5oGIm-7" value="" style="edgeStyle=orthogonalEdgeStyle;rounded=0;orthogonalLoop=1;jettySize=auto;html=1;sketch=1;curveFitting=1;jiggle=2;strokeWidth=3;" edge="1" parent="1" source="HLLoZeZULIPI3SQ5oGIm-2" target="HLLoZeZULIPI3SQ5oGIm-6">
          <mxGeometry relative="1" as="geometry">
            <Array as="points">
              <mxPoint x="887" y="580" />
            </Array>
          </mxGeometry>
        </mxCell>
        <mxCell id="HLLoZeZULIPI3SQ5oGIm-2" value="API" style="rounded=0;whiteSpace=wrap;html=1;fillColor=#f8cecc;strokeColor=#b85450;sketch=1;curveFitting=1;jiggle=2;" vertex="1" parent="1">
          <mxGeometry x="827" y="380" width="120" height="60" as="geometry" />
        </mxCell>
        <mxCell id="HLLoZeZULIPI3SQ5oGIm-10" style="edgeStyle=orthogonalEdgeStyle;rounded=0;orthogonalLoop=1;jettySize=auto;html=1;entryX=0;entryY=0;entryDx=0;entryDy=52.5;entryPerimeter=0;sketch=1;curveFitting=1;jiggle=2;strokeWidth=3;" edge="1" parent="1" source="HLLoZeZULIPI3SQ5oGIm-4" target="HLLoZeZULIPI3SQ5oGIm-8">
          <mxGeometry relative="1" as="geometry">
            <mxPoint x="1390" y="250" as="targetPoint" />
          </mxGeometry>
        </mxCell>
        <mxCell id="HLLoZeZULIPI3SQ5oGIm-4" value="Command" style="rounded=0;whiteSpace=wrap;html=1;fillColor=#ffe6cc;strokeColor=#d79b00;sketch=1;curveFitting=1;jiggle=2;" vertex="1" parent="1">
          <mxGeometry x="1046" y="220" width="120" height="60" as="geometry" />
        </mxCell>
        <mxCell id="HLLoZeZULIPI3SQ5oGIm-6" value="Query" style="rounded=0;whiteSpace=wrap;html=1;fillColor=#d5e8d4;strokeColor=#82b366;sketch=1;curveFitting=1;jiggle=2;" vertex="1" parent="1">
          <mxGeometry x="1040" y="540" width="120" height="60" as="geometry" />
        </mxCell>
        <mxCell id="HLLoZeZULIPI3SQ5oGIm-8" value="Database" style="shape=cylinder3;whiteSpace=wrap;html=1;boundedLbl=1;backgroundOutline=1;size=15;fillColor=#fff2cc;strokeColor=#d6b656;" vertex="1" parent="1">
          <mxGeometry x="1400" y="195" width="60" height="80" as="geometry" />
        </mxCell>
        <mxCell id="HLLoZeZULIPI3SQ5oGIm-9" value="Redis" style="shape=cylinder3;whiteSpace=wrap;html=1;boundedLbl=1;backgroundOutline=1;size=15;fillColor=#e1d5e7;strokeColor=#9673a6;" vertex="1" parent="1">
          <mxGeometry x="1400" y="520" width="60" height="80" as="geometry" />
        </mxCell>
        <mxCell id="HLLoZeZULIPI3SQ5oGIm-11" style="edgeStyle=orthogonalEdgeStyle;rounded=0;orthogonalLoop=1;jettySize=auto;html=1;entryX=0.05;entryY=0.588;entryDx=0;entryDy=0;entryPerimeter=0;sketch=1;curveFitting=1;jiggle=2;strokeWidth=3;" edge="1" parent="1" source="HLLoZeZULIPI3SQ5oGIm-6" target="HLLoZeZULIPI3SQ5oGIm-9">
          <mxGeometry relative="1" as="geometry" />
        </mxCell>
        <mxCell id="HLLoZeZULIPI3SQ5oGIm-12" style="edgeStyle=orthogonalEdgeStyle;rounded=0;orthogonalLoop=1;jettySize=auto;html=1;entryX=1;entryY=0;entryDx=0;entryDy=15;entryPerimeter=0;sketch=1;curveFitting=1;jiggle=2;strokeWidth=3;" edge="1" parent="1" source="HLLoZeZULIPI3SQ5oGIm-8" target="HLLoZeZULIPI3SQ5oGIm-9">
          <mxGeometry relative="1" as="geometry">
            <Array as="points">
              <mxPoint x="1560" y="235" />
              <mxPoint x="1560" y="535" />
            </Array>
          </mxGeometry>
        </mxCell>
      </root>
    </mxGraphModel>
  </diagram>
  <diagram id="ahuZRZGObPsFT3OtmeMx" name="API">
    <mxGraphModel dx="2074" dy="836" grid="1" gridSize="10" guides="1" tooltips="1" connect="1" arrows="1" fold="1" page="1" pageScale="1" pageWidth="827" pageHeight="1169" math="0" shadow="0">
      <root>
        <mxCell id="0" />
        <mxCell id="1" parent="0" />
        <mxCell id="lDMceDqA-EqAgHHXMjuX-4" style="edgeStyle=orthogonalEdgeStyle;rounded=0;orthogonalLoop=1;jettySize=auto;html=1;entryX=0;entryY=0.5;entryDx=0;entryDy=0;exitX=0.25;exitY=0;exitDx=0;exitDy=0;fillColor=#d5e8d4;strokeColor=#82b366;strokeWidth=2;sketch=1;curveFitting=1;jiggle=2;" parent="1" source="TvQetbHiXs5FYWT_ycNn-1" target="lDMceDqA-EqAgHHXMjuX-1" edge="1">
          <mxGeometry relative="1" as="geometry">
            <Array as="points">
              <mxPoint x="300" y="273" />
              <mxPoint x="300" y="260" />
              <mxPoint x="353" y="260" />
              <mxPoint x="353" y="240" />
            </Array>
          </mxGeometry>
        </mxCell>
        <mxCell id="lDMceDqA-EqAgHHXMjuX-5" style="edgeStyle=orthogonalEdgeStyle;rounded=0;orthogonalLoop=1;jettySize=auto;html=1;strokeWidth=2;fillColor=#dae8fc;strokeColor=#6c8ebf;sketch=1;curveFitting=1;jiggle=2;" parent="1" source="TvQetbHiXs5FYWT_ycNn-1" target="lDMceDqA-EqAgHHXMjuX-2" edge="1">
          <mxGeometry relative="1" as="geometry" />
        </mxCell>
        <mxCell id="lDMceDqA-EqAgHHXMjuX-6" style="edgeStyle=orthogonalEdgeStyle;rounded=0;orthogonalLoop=1;jettySize=auto;html=1;exitX=0.705;exitY=-0.037;exitDx=0;exitDy=0;exitPerimeter=0;strokeWidth=2;fillColor=#ffe6cc;strokeColor=#d79b00;sketch=1;curveFitting=1;jiggle=2;" parent="1" source="TvQetbHiXs5FYWT_ycNn-1" target="lDMceDqA-EqAgHHXMjuX-3" edge="1">
          <mxGeometry relative="1" as="geometry">
            <Array as="points">
              <mxPoint x="278" y="350" />
              <mxPoint x="353" y="350" />
              <mxPoint x="353" y="400" />
            </Array>
          </mxGeometry>
        </mxCell>
        <mxCell id="TvQetbHiXs5FYWT_ycNn-1" value="API Gateway" style="rounded=0;whiteSpace=wrap;html=1;rotation=90;verticalAlign=middle;horizontal=0;fontStyle=1;fillColor=#f5f5f5;fontColor=#333333;strokeColor=#666666;sketch=1;curveFitting=1;jiggle=2;" parent="1" vertex="1">
          <mxGeometry x="140" y="280" width="190" height="80" as="geometry" />
        </mxCell>
        <mxCell id="TvQetbHiXs5FYWT_ycNn-6" style="edgeStyle=orthogonalEdgeStyle;rounded=0;orthogonalLoop=1;jettySize=auto;html=1;fillColor=#f8cecc;strokeColor=#b85450;strokeWidth=2;sketch=1;curveFitting=1;jiggle=2;" parent="1" source="TvQetbHiXs5FYWT_ycNn-2" target="TvQetbHiXs5FYWT_ycNn-1" edge="1">
          <mxGeometry relative="1" as="geometry">
            <Array as="points">
              <mxPoint x="110" y="180" />
              <mxPoint x="110" y="320" />
            </Array>
          </mxGeometry>
        </mxCell>
        <mxCell id="TvQetbHiXs5FYWT_ycNn-2" value="User" style="shape=umlActor;verticalLabelPosition=bottom;verticalAlign=top;html=1;outlineConnect=0;fillColor=#f8cecc;strokeColor=#b85450;sketch=1;curveFitting=1;jiggle=2;" parent="1" vertex="1">
          <mxGeometry x="30" y="150" width="30" height="60" as="geometry" />
        </mxCell>
        <mxCell id="TvQetbHiXs5FYWT_ycNn-5" value="User" style="shape=umlActor;verticalLabelPosition=bottom;verticalAlign=top;html=1;outlineConnect=0;fillColor=#f8cecc;strokeColor=#b85450;sketch=1;curveFitting=1;jiggle=2;" parent="1" vertex="1">
          <mxGeometry x="30" y="430" width="30" height="60" as="geometry" />
        </mxCell>
        <mxCell id="TvQetbHiXs5FYWT_ycNn-7" style="edgeStyle=orthogonalEdgeStyle;rounded=0;orthogonalLoop=1;jettySize=auto;html=1;entryX=0.632;entryY=1.013;entryDx=0;entryDy=0;entryPerimeter=0;fillColor=#f8cecc;strokeColor=#b85450;strokeWidth=2;sketch=1;curveFitting=1;jiggle=2;" parent="1" source="TvQetbHiXs5FYWT_ycNn-5" target="TvQetbHiXs5FYWT_ycNn-1" edge="1">
          <mxGeometry relative="1" as="geometry">
            <Array as="points">
              <mxPoint x="110" y="460" />
              <mxPoint x="110" y="345" />
            </Array>
          </mxGeometry>
        </mxCell>
        <mxCell id="lDMceDqA-EqAgHHXMjuX-8" style="edgeStyle=orthogonalEdgeStyle;rounded=0;orthogonalLoop=1;jettySize=auto;html=1;strokeWidth=2;fillColor=#d5e8d4;strokeColor=#82b366;sketch=1;curveFitting=1;jiggle=2;" parent="1" source="lDMceDqA-EqAgHHXMjuX-1" target="lDMceDqA-EqAgHHXMjuX-7" edge="1">
          <mxGeometry relative="1" as="geometry" />
        </mxCell>
        <mxCell id="lDMceDqA-EqAgHHXMjuX-1" value="Poc.Core.API" style="rounded=1;whiteSpace=wrap;html=1;fillColor=#d5e8d4;strokeColor=#82b366;sketch=1;curveFitting=1;jiggle=2;" parent="1" vertex="1">
          <mxGeometry x="430" y="210" width="120" height="60" as="geometry" />
        </mxCell>
        <mxCell id="lDMceDqA-EqAgHHXMjuX-2" value="Poc.MKT.API" style="rounded=1;whiteSpace=wrap;html=1;fillColor=#dae8fc;strokeColor=#6c8ebf;sketch=1;curveFitting=1;jiggle=2;" parent="1" vertex="1">
          <mxGeometry x="430" y="290" width="120" height="60" as="geometry" />
        </mxCell>
        <mxCell id="lDMceDqA-EqAgHHXMjuX-12" style="edgeStyle=orthogonalEdgeStyle;rounded=0;orthogonalLoop=1;jettySize=auto;html=1;strokeWidth=2;fillColor=#ffe6cc;strokeColor=#d79b00;sketch=1;curveFitting=1;jiggle=2;" parent="1" source="lDMceDqA-EqAgHHXMjuX-3" target="lDMceDqA-EqAgHHXMjuX-11" edge="1">
          <mxGeometry relative="1" as="geometry" />
        </mxCell>
        <mxCell id="lDMceDqA-EqAgHHXMjuX-3" value="Poc.RH.API" style="rounded=1;whiteSpace=wrap;html=1;fillColor=#ffe6cc;strokeColor=#d79b00;sketch=1;curveFitting=1;jiggle=2;" parent="1" vertex="1">
          <mxGeometry x="430" y="370" width="120" height="60" as="geometry" />
        </mxCell>
        <mxCell id="lDMceDqA-EqAgHHXMjuX-7" value="SQL Server" style="shape=cylinder3;whiteSpace=wrap;html=1;boundedLbl=1;backgroundOutline=1;size=15;fillColor=#d5e8d4;strokeColor=#82b366;sketch=1;curveFitting=1;jiggle=2;" parent="1" vertex="1">
          <mxGeometry x="670" y="150" width="90" height="80" as="geometry" />
        </mxCell>
        <mxCell id="lDMceDqA-EqAgHHXMjuX-9" value="MySQL" style="shape=cylinder3;whiteSpace=wrap;html=1;boundedLbl=1;backgroundOutline=1;size=15;fillColor=#dae8fc;strokeColor=#6c8ebf;sketch=1;curveFitting=1;jiggle=2;" parent="1" vertex="1">
          <mxGeometry x="670" y="270" width="90" height="80" as="geometry" />
        </mxCell>
        <mxCell id="lDMceDqA-EqAgHHXMjuX-10" style="edgeStyle=orthogonalEdgeStyle;rounded=0;orthogonalLoop=1;jettySize=auto;html=1;entryX=0;entryY=0;entryDx=0;entryDy=52.5;entryPerimeter=0;fillColor=#dae8fc;strokeColor=#6c8ebf;strokeWidth=2;sketch=1;curveFitting=1;jiggle=2;" parent="1" source="lDMceDqA-EqAgHHXMjuX-2" target="lDMceDqA-EqAgHHXMjuX-9" edge="1">
          <mxGeometry relative="1" as="geometry" />
        </mxCell>
        <mxCell id="lDMceDqA-EqAgHHXMjuX-11" value="Oracle" style="shape=cylinder3;whiteSpace=wrap;html=1;boundedLbl=1;backgroundOutline=1;size=15;fillColor=#ffe6cc;strokeColor=#d79b00;sketch=1;curveFitting=1;jiggle=2;" parent="1" vertex="1">
          <mxGeometry x="670" y="390" width="90" height="80" as="geometry" />
        </mxCell>
        <mxCell id="Y0UXy7J9RZKgHwA0rPB6-1" value="&lt;span style=&quot;color: rgb(51, 51, 51); font-weight: 700;&quot;&gt;API Gateway&lt;/span&gt;" style="rounded=0;whiteSpace=wrap;html=1;sketch=1;curveFitting=1;jiggle=2;" parent="1" vertex="1">
          <mxGeometry x="20" y="40" width="790" height="60" as="geometry" />
        </mxCell>
        <mxCell id="Y0UXy7J9RZKgHwA0rPB6-2" value="&lt;b&gt;&lt;font style=&quot;font-size: 18px;&quot;&gt;1&lt;/font&gt;&lt;/b&gt;" style="ellipse;whiteSpace=wrap;html=1;aspect=fixed;sketch=1;curveFitting=1;jiggle=2;" parent="1" vertex="1">
          <mxGeometry x="27" y="45" width="50" height="50" as="geometry" />
        </mxCell>
        <mxCell id="Y0UXy7J9RZKgHwA0rPB6-3" value="&lt;font color=&quot;#333333&quot;&gt;&lt;b&gt;API&lt;/b&gt;&lt;/font&gt;" style="rounded=0;whiteSpace=wrap;html=1;sketch=1;curveFitting=1;jiggle=2;" parent="1" vertex="1">
          <mxGeometry x="20" y="570" width="790" height="60" as="geometry" />
        </mxCell>
        <mxCell id="Y0UXy7J9RZKgHwA0rPB6-4" value="&lt;b&gt;&lt;font style=&quot;font-size: 18px;&quot;&gt;2&lt;/font&gt;&lt;/b&gt;" style="ellipse;whiteSpace=wrap;html=1;aspect=fixed;sketch=1;curveFitting=1;jiggle=2;" parent="1" vertex="1">
          <mxGeometry x="27" y="575" width="50" height="50" as="geometry" />
        </mxCell>
        <mxCell id="OPoDf-U7v62vU4xuOSaW-5" style="edgeStyle=orthogonalEdgeStyle;rounded=0;orthogonalLoop=1;jettySize=auto;html=1;entryX=1;entryY=0.75;entryDx=0;entryDy=0;fillColor=#dae8fc;strokeColor=#6c8ebf;strokeWidth=2;sketch=1;curveFitting=1;jiggle=2;" parent="1" source="l6_i6m9LhHGrh1XdNoCO-4" target="OPoDf-U7v62vU4xuOSaW-1" edge="1">
          <mxGeometry relative="1" as="geometry">
            <Array as="points">
              <mxPoint x="580" y="795" />
              <mxPoint x="580" y="795" />
            </Array>
          </mxGeometry>
        </mxCell>
        <mxCell id="l6_i6m9LhHGrh1XdNoCO-4" value="SQL DataBase" style="shape=cylinder3;whiteSpace=wrap;html=1;boundedLbl=1;backgroundOutline=1;size=15;sketch=1;curveFitting=1;jiggle=2;fillColor=#f5f5f5;fontColor=#333333;strokeColor=#666666;" parent="1" vertex="1">
          <mxGeometry x="650" y="680" width="150" height="130" as="geometry" />
        </mxCell>
        <mxCell id="L9uX9v98pFsKoT2Afgww-19" style="edgeStyle=orthogonalEdgeStyle;rounded=0;orthogonalLoop=1;jettySize=auto;html=1;entryX=1;entryY=0.5;entryDx=0;entryDy=0;sketch=1;curveFitting=1;jiggle=2;fillColor=#dae8fc;strokeColor=#6c8ebf;strokeWidth=2;" parent="1" source="l6_i6m9LhHGrh1XdNoCO-5" target="xDa1x67eltqoqkf9-ITi-1" edge="1">
          <mxGeometry relative="1" as="geometry">
            <Array as="points">
              <mxPoint x="580" y="990" />
              <mxPoint x="580" y="990" />
            </Array>
          </mxGeometry>
        </mxCell>
        <mxCell id="l6_i6m9LhHGrh1XdNoCO-5" value="Cache Redis" style="shape=cylinder3;whiteSpace=wrap;html=1;boundedLbl=1;backgroundOutline=1;size=15;sketch=1;curveFitting=1;jiggle=2;fillColor=#f5f5f5;fontColor=#333333;strokeColor=#666666;" parent="1" vertex="1">
          <mxGeometry x="640" y="920" width="115" height="100" as="geometry" />
        </mxCell>
        <mxCell id="OPoDf-U7v62vU4xuOSaW-2" style="edgeStyle=orthogonalEdgeStyle;rounded=0;orthogonalLoop=1;jettySize=auto;html=1;entryX=0;entryY=0.25;entryDx=0;entryDy=0;fillColor=#e1d5e7;strokeColor=#9673a6;sketch=1;curveFitting=1;jiggle=2;strokeWidth=2;" parent="1" source="l6_i6m9LhHGrh1XdNoCO-7" target="OPoDf-U7v62vU4xuOSaW-1" edge="1">
          <mxGeometry relative="1" as="geometry" />
        </mxCell>
        <mxCell id="l6_i6m9LhHGrh1XdNoCO-7" value="User" style="shape=umlActor;verticalLabelPosition=bottom;verticalAlign=top;html=1;outlineConnect=0;fillColor=#f8cecc;strokeColor=#b85450;sketch=1;curveFitting=1;jiggle=2;" parent="1" vertex="1">
          <mxGeometry x="20" y="740" width="30" height="60" as="geometry" />
        </mxCell>
        <mxCell id="L9uX9v98pFsKoT2Afgww-1" style="edgeStyle=orthogonalEdgeStyle;rounded=0;orthogonalLoop=1;jettySize=auto;html=1;entryX=0.017;entryY=0.133;entryDx=0;entryDy=0;entryPerimeter=0;strokeWidth=2;fillColor=#e1d5e7;strokeColor=#9673a6;sketch=1;curveFitting=1;jiggle=2;" parent="1" source="l6_i6m9LhHGrh1XdNoCO-8" target="xDa1x67eltqoqkf9-ITi-1" edge="1">
          <mxGeometry relative="1" as="geometry" />
        </mxCell>
        <mxCell id="l6_i6m9LhHGrh1XdNoCO-8" value="User" style="shape=umlActor;verticalLabelPosition=bottom;verticalAlign=top;html=1;outlineConnect=0;fillColor=#f8cecc;strokeColor=#b85450;sketch=1;curveFitting=1;jiggle=2;" parent="1" vertex="1">
          <mxGeometry x="20" y="940" width="30" height="60" as="geometry" />
        </mxCell>
        <mxCell id="L9uX9v98pFsKoT2Afgww-18" style="edgeStyle=orthogonalEdgeStyle;rounded=0;orthogonalLoop=1;jettySize=auto;html=1;fillColor=#e1d5e7;strokeColor=#9673a6;strokeWidth=2;sketch=1;curveFitting=1;jiggle=2;" parent="1" source="xDa1x67eltqoqkf9-ITi-1" target="l6_i6m9LhHGrh1XdNoCO-5" edge="1">
          <mxGeometry relative="1" as="geometry">
            <Array as="points">
              <mxPoint x="470" y="970" />
              <mxPoint x="470" y="970" />
            </Array>
          </mxGeometry>
        </mxCell>
        <mxCell id="xDa1x67eltqoqkf9-ITi-1" value="Query&amp;nbsp;Handler" style="rounded=0;whiteSpace=wrap;html=1;fillColor=#fff2cc;strokeColor=#d6b656;sketch=1;curveFitting=1;jiggle=2;" parent="1" vertex="1">
          <mxGeometry x="290" y="960" width="120" height="60" as="geometry" />
        </mxCell>
        <mxCell id="L9uX9v98pFsKoT2Afgww-16" style="edgeStyle=orthogonalEdgeStyle;rounded=0;orthogonalLoop=1;jettySize=auto;html=1;entryX=1;entryY=1;entryDx=0;entryDy=0;entryPerimeter=0;fillColor=#dae8fc;strokeColor=#6c8ebf;strokeWidth=2;sketch=1;curveFitting=1;jiggle=2;" parent="1" source="xDa1x67eltqoqkf9-ITi-1" target="l6_i6m9LhHGrh1XdNoCO-8" edge="1">
          <mxGeometry relative="1" as="geometry">
            <Array as="points">
              <mxPoint x="170" y="990" />
              <mxPoint x="170" y="1000" />
            </Array>
          </mxGeometry>
        </mxCell>
        <mxCell id="L9uX9v98pFsKoT2Afgww-17" value="GET" style="text;html=1;align=center;verticalAlign=middle;resizable=0;points=[];autosize=1;strokeColor=none;fillColor=none;sketch=1;curveFitting=1;jiggle=2;" parent="1" vertex="1">
          <mxGeometry x="105" y="938" width="50" height="30" as="geometry" />
        </mxCell>
        <mxCell id="L9uX9v98pFsKoT2Afgww-20" style="edgeStyle=orthogonalEdgeStyle;rounded=0;orthogonalLoop=1;jettySize=auto;html=1;entryX=0.06;entryY=0.954;entryDx=0;entryDy=0;entryPerimeter=0;fillColor=#e1d5e7;strokeColor=#9673a6;strokeWidth=2;sketch=1;curveFitting=1;jiggle=2;" parent="1" source="xDa1x67eltqoqkf9-ITi-1" target="l6_i6m9LhHGrh1XdNoCO-4" edge="1">
          <mxGeometry relative="1" as="geometry">
            <Array as="points">
              <mxPoint x="350" y="930" />
              <mxPoint x="580" y="930" />
              <mxPoint x="580" y="820" />
              <mxPoint x="659" y="820" />
            </Array>
          </mxGeometry>
        </mxCell>
        <mxCell id="OPoDf-U7v62vU4xuOSaW-6" style="edgeStyle=orthogonalEdgeStyle;rounded=0;orthogonalLoop=1;jettySize=auto;html=1;fillColor=#dae8fc;strokeColor=#6c8ebf;strokeWidth=2;sketch=1;curveFitting=1;jiggle=2;" parent="1" source="OPoDf-U7v62vU4xuOSaW-1" target="l6_i6m9LhHGrh1XdNoCO-7" edge="1">
          <mxGeometry relative="1" as="geometry">
            <Array as="points">
              <mxPoint x="165" y="780" />
              <mxPoint x="165" y="790" />
            </Array>
          </mxGeometry>
        </mxCell>
        <mxCell id="OPoDf-U7v62vU4xuOSaW-1" value="Command" style="rounded=0;whiteSpace=wrap;html=1;fillColor=#d5e8d4;strokeColor=#82b366;sketch=1;curveFitting=1;jiggle=2;" parent="1" vertex="1">
          <mxGeometry x="280" y="750" width="120" height="60" as="geometry" />
        </mxCell>
        <mxCell id="OPoDf-U7v62vU4xuOSaW-3" style="edgeStyle=orthogonalEdgeStyle;rounded=0;orthogonalLoop=1;jettySize=auto;html=1;entryX=0.007;entryY=0.215;entryDx=0;entryDy=0;entryPerimeter=0;fillColor=#e1d5e7;strokeColor=#9673a6;sketch=1;curveFitting=1;jiggle=2;strokeWidth=2;" parent="1" source="OPoDf-U7v62vU4xuOSaW-1" target="l6_i6m9LhHGrh1XdNoCO-4" edge="1">
          <mxGeometry relative="1" as="geometry" />
        </mxCell>
        <mxCell id="OPoDf-U7v62vU4xuOSaW-4" style="edgeStyle=orthogonalEdgeStyle;rounded=0;orthogonalLoop=1;jettySize=auto;html=1;entryX=0.217;entryY=0.05;entryDx=0;entryDy=0;entryPerimeter=0;fillColor=#d5e8d4;strokeColor=#82b366;sketch=1;curveFitting=1;jiggle=2;strokeWidth=2;" parent="1" source="OPoDf-U7v62vU4xuOSaW-1" target="l6_i6m9LhHGrh1XdNoCO-5" edge="1">
          <mxGeometry relative="1" as="geometry">
            <Array as="points">
              <mxPoint x="340" y="850" />
              <mxPoint x="665" y="850" />
            </Array>
          </mxGeometry>
        </mxCell>
        <mxCell id="OPoDf-U7v62vU4xuOSaW-7" value="POST / PUT / DELETE" style="text;html=1;align=center;verticalAlign=middle;resizable=0;points=[];autosize=1;strokeColor=none;fillColor=none;sketch=1;curveFitting=1;jiggle=2;" parent="1" vertex="1">
          <mxGeometry x="85" y="718" width="150" height="30" as="geometry" />
        </mxCell>
        <mxCell id="Ie1VBS3sWOCz4_3Ay8cL-1" value="&lt;font color=&quot;#333333&quot;&gt;&lt;b&gt;Server&lt;/b&gt;&lt;/font&gt;" style="rounded=0;whiteSpace=wrap;html=1;" parent="1" vertex="1">
          <mxGeometry x="20" y="1080" width="790" height="60" as="geometry" />
        </mxCell>
        <mxCell id="Ie1VBS3sWOCz4_3Ay8cL-2" value="&lt;b&gt;&lt;font style=&quot;font-size: 18px;&quot;&gt;3&lt;/font&gt;&lt;/b&gt;" style="ellipse;whiteSpace=wrap;html=1;aspect=fixed;" parent="1" vertex="1">
          <mxGeometry x="27" y="1085" width="50" height="50" as="geometry" />
        </mxCell>
        <mxCell id="ngC5baywthoDzOmsI_TN-5" style="edgeStyle=orthogonalEdgeStyle;rounded=0;orthogonalLoop=1;jettySize=auto;html=1;sketch=1;curveFitting=1;jiggle=2;strokeWidth=2;fillColor=#dae8fc;strokeColor=#6c8ebf;" parent="1" source="Ie1VBS3sWOCz4_3Ay8cL-4" target="Ie1VBS3sWOCz4_3Ay8cL-6" edge="1">
          <mxGeometry relative="1" as="geometry">
            <Array as="points">
              <mxPoint x="700" y="1448" />
              <mxPoint x="703" y="1448" />
            </Array>
          </mxGeometry>
        </mxCell>
        <mxCell id="Ie1VBS3sWOCz4_3Ay8cL-4" value="SQL DataBase" style="shape=cylinder3;whiteSpace=wrap;html=1;boundedLbl=1;backgroundOutline=1;size=15;sketch=1;curveFitting=1;jiggle=2;fillColor=#dae8fc;strokeColor=#6c8ebf;" parent="1" vertex="1">
          <mxGeometry x="640" y="1225" width="150" height="130" as="geometry" />
        </mxCell>
        <mxCell id="vQotxmyydt3oUwjKxb_i-13" style="edgeStyle=orthogonalEdgeStyle;rounded=0;orthogonalLoop=1;jettySize=auto;html=1;entryX=1;entryY=0.75;entryDx=0;entryDy=0;strokeWidth=2;sketch=1;curveFitting=1;jiggle=2;fillColor=#dae8fc;strokeColor=#6c8ebf;" parent="1" source="Ie1VBS3sWOCz4_3Ay8cL-6" target="ngC5baywthoDzOmsI_TN-2" edge="1">
          <mxGeometry relative="1" as="geometry" />
        </mxCell>
        <mxCell id="Ie1VBS3sWOCz4_3Ay8cL-6" value="Cache Redis" style="shape=cylinder3;whiteSpace=wrap;html=1;boundedLbl=1;backgroundOutline=1;size=15;sketch=1;curveFitting=1;jiggle=2;fillColor=#dae8fc;strokeColor=#6c8ebf;" parent="1" vertex="1">
          <mxGeometry x="645" y="1540" width="115" height="100" as="geometry" />
        </mxCell>
        <mxCell id="vQotxmyydt3oUwjKxb_i-8" style="edgeStyle=orthogonalEdgeStyle;rounded=0;orthogonalLoop=1;jettySize=auto;html=1;sketch=1;curveFitting=1;jiggle=2;strokeWidth=2;fillColor=#dae8fc;strokeColor=#6c8ebf;" parent="1" source="qve8zbmsNJxZIsY_xxBb-1" target="ngC5baywthoDzOmsI_TN-1" edge="1">
          <mxGeometry relative="1" as="geometry">
            <Array as="points">
              <mxPoint x="80" y="1240" />
            </Array>
          </mxGeometry>
        </mxCell>
        <mxCell id="qve8zbmsNJxZIsY_xxBb-1" value="Client" style="rounded=0;whiteSpace=wrap;html=1;rotation=90;verticalAlign=middle;horizontal=0;fontStyle=1;fillColor=#dae8fc;strokeColor=#6c8ebf;sketch=1;curveFitting=1;jiggle=2;" parent="1" vertex="1">
          <mxGeometry x="-15" y="1362" width="190" height="80" as="geometry" />
        </mxCell>
        <mxCell id="vQotxmyydt3oUwjKxb_i-12" style="edgeStyle=orthogonalEdgeStyle;rounded=0;orthogonalLoop=1;jettySize=auto;html=1;strokeWidth=2;sketch=1;curveFitting=1;jiggle=2;fillColor=#dae8fc;strokeColor=#6c8ebf;" parent="1" source="ngC5baywthoDzOmsI_TN-1" target="Ie1VBS3sWOCz4_3Ay8cL-4" edge="1">
          <mxGeometry relative="1" as="geometry" />
        </mxCell>
        <mxCell id="ngC5baywthoDzOmsI_TN-1" value="Domain Model" style="rounded=1;whiteSpace=wrap;html=1;fillColor=#dae8fc;strokeColor=#6c8ebf;sketch=1;curveFitting=1;jiggle=2;" parent="1" vertex="1">
          <mxGeometry x="320" y="1220" width="120" height="60" as="geometry" />
        </mxCell>
        <mxCell id="ngC5baywthoDzOmsI_TN-2" value="Read Queries" style="rounded=1;whiteSpace=wrap;html=1;fillColor=#dae8fc;strokeColor=#6c8ebf;sketch=1;curveFitting=1;jiggle=2;" parent="1" vertex="1">
          <mxGeometry x="320" y="1540" width="120" height="60" as="geometry" />
        </mxCell>
        <mxCell id="vQotxmyydt3oUwjKxb_i-7" value="Write API" style="shape=note;whiteSpace=wrap;html=1;backgroundOutline=1;darkOpacity=0.05;sketch=1;curveFitting=1;jiggle=2;fillColor=#fff2cc;strokeColor=#d6b656;" parent="1" vertex="1">
          <mxGeometry x="160" y="1240" width="80" height="100" as="geometry" />
        </mxCell>
        <mxCell id="vQotxmyydt3oUwjKxb_i-9" style="edgeStyle=orthogonalEdgeStyle;rounded=0;orthogonalLoop=1;jettySize=auto;html=1;entryX=0.008;entryY=0.617;entryDx=0;entryDy=0;entryPerimeter=0;sketch=1;curveFitting=1;jiggle=2;strokeWidth=2;fillColor=#dae8fc;strokeColor=#6c8ebf;" parent="1" source="qve8zbmsNJxZIsY_xxBb-1" target="ngC5baywthoDzOmsI_TN-2" edge="1">
          <mxGeometry relative="1" as="geometry">
            <Array as="points">
              <mxPoint x="80" y="1577" />
            </Array>
          </mxGeometry>
        </mxCell>
        <mxCell id="vQotxmyydt3oUwjKxb_i-10" value="Read API" style="shape=note;whiteSpace=wrap;html=1;backgroundOutline=1;darkOpacity=0.05;sketch=1;curveFitting=1;jiggle=2;fillColor=#fff2cc;strokeColor=#d6b656;" parent="1" vertex="1">
          <mxGeometry x="160" y="1478" width="80" height="100" as="geometry" />
        </mxCell>
        <mxCell id="vQotxmyydt3oUwjKxb_i-11" value="Sync" style="shape=note;whiteSpace=wrap;html=1;backgroundOutline=1;darkOpacity=0.05;sketch=1;curveFitting=1;jiggle=2;fillColor=#fff2cc;strokeColor=#d6b656;" parent="1" vertex="1">
          <mxGeometry x="710" y="1390" width="80" height="100" as="geometry" />
        </mxCell>
        <mxCell id="vQotxmyydt3oUwjKxb_i-14" value="Command" style="text;html=1;align=center;verticalAlign=middle;resizable=0;points=[];autosize=1;strokeColor=none;fillColor=none;strokeWidth=12;" parent="1" vertex="1">
          <mxGeometry x="80" y="1208" width="80" height="30" as="geometry" />
        </mxCell>
        <mxCell id="vQotxmyydt3oUwjKxb_i-15" value="Query" style="text;html=1;align=center;verticalAlign=middle;resizable=0;points=[];autosize=1;strokeColor=none;fillColor=none;strokeWidth=12;" parent="1" vertex="1">
          <mxGeometry x="90" y="1578" width="60" height="30" as="geometry" />
        </mxCell>
        <mxCell id="vQotxmyydt3oUwjKxb_i-16" value="Queries" style="text;html=1;align=center;verticalAlign=middle;resizable=0;points=[];autosize=1;strokeColor=none;fillColor=none;strokeWidth=12;" parent="1" vertex="1">
          <mxGeometry x="515" y="1600" width="70" height="30" as="geometry" />
        </mxCell>
        <mxCell id="vQotxmyydt3oUwjKxb_i-17" value="Commands" style="text;html=1;align=center;verticalAlign=middle;resizable=0;points=[];autosize=1;strokeColor=none;fillColor=none;strokeWidth=12;" parent="1" vertex="1">
          <mxGeometry x="510" y="1290" width="80" height="30" as="geometry" />
        </mxCell>
      </root>
    </mxGraphModel>
  </diagram>
  <diagram id="wu6ocodu00Ka_gTNC5cj" name="Architecture">
    <mxGraphModel dx="2074" dy="836" grid="1" gridSize="10" guides="1" tooltips="1" connect="1" arrows="1" fold="1" page="1" pageScale="1" pageWidth="827" pageHeight="1169" math="0" shadow="0">
      <root>
        <mxCell id="0" />
        <mxCell id="1" parent="0" />
        <mxCell id="4XMU_vUna-2bT30QGf2M-27" style="edgeStyle=orthogonalEdgeStyle;rounded=0;orthogonalLoop=1;jettySize=auto;html=1;strokeWidth=2;fillColor=#f5f5f5;strokeColor=#666666;" parent="1" source="4XMU_vUna-2bT30QGf2M-1" target="4XMU_vUna-2bT30QGf2M-12" edge="1">
          <mxGeometry relative="1" as="geometry" />
        </mxCell>
        <mxCell id="4XMU_vUna-2bT30QGf2M-44" style="edgeStyle=orthogonalEdgeStyle;rounded=0;orthogonalLoop=1;jettySize=auto;html=1;strokeWidth=2;fillColor=#f5f5f5;strokeColor=#666666;" parent="1" source="4XMU_vUna-2bT30QGf2M-1" edge="1">
          <mxGeometry relative="1" as="geometry">
            <mxPoint x="800" y="250" as="targetPoint" />
          </mxGeometry>
        </mxCell>
        <mxCell id="4XMU_vUna-2bT30QGf2M-1" value="API.NET Core Web APP" style="swimlane;whiteSpace=wrap;html=1;sketch=1;curveFitting=1;jiggle=2;fillColor=#dae8fc;strokeColor=#6c8ebf;fontStyle=0" parent="1" vertex="1">
          <mxGeometry x="40" y="80" width="630" height="410" as="geometry" />
        </mxCell>
        <mxCell id="4XMU_vUna-2bT30QGf2M-2" value="Controllers" style="rounded=1;whiteSpace=wrap;html=1;sketch=1;curveFitting=1;jiggle=2;fillColor=#008a00;fontColor=#000000;strokeColor=#005700;fontSize=16;fontStyle=1" parent="4XMU_vUna-2bT30QGf2M-1" vertex="1">
          <mxGeometry x="10" y="140" width="120" height="60" as="geometry" />
        </mxCell>
        <mxCell id="4XMU_vUna-2bT30QGf2M-6" value="Poc.Core.API" style="rounded=1;whiteSpace=wrap;html=1;sketch=1;curveFitting=1;jiggle=2;fillColor=#e3c800;fontColor=#000000;strokeColor=#B09500;fontSize=16;fontStyle=1" parent="4XMU_vUna-2bT30QGf2M-1" vertex="1">
          <mxGeometry x="440" y="60" width="120" height="60" as="geometry" />
        </mxCell>
        <mxCell id="4XMU_vUna-2bT30QGf2M-9" style="edgeStyle=orthogonalEdgeStyle;rounded=0;orthogonalLoop=1;jettySize=auto;html=1;entryX=0;entryY=0.25;entryDx=0;entryDy=0;fillColor=#1ba1e2;strokeColor=#006EAF;strokeWidth=2;sketch=1;curveFitting=1;jiggle=2;" parent="4XMU_vUna-2bT30QGf2M-1" source="4XMU_vUna-2bT30QGf2M-5" target="4XMU_vUna-2bT30QGf2M-6" edge="1">
          <mxGeometry relative="1" as="geometry">
            <Array as="points">
              <mxPoint x="290" y="140" />
              <mxPoint x="405" y="140" />
              <mxPoint x="405" y="75" />
            </Array>
          </mxGeometry>
        </mxCell>
        <mxCell id="4XMU_vUna-2bT30QGf2M-10" style="edgeStyle=orthogonalEdgeStyle;rounded=0;orthogonalLoop=1;jettySize=auto;html=1;entryX=0;entryY=0.5;entryDx=0;entryDy=0;fillColor=#1ba1e2;strokeColor=#006EAF;strokeWidth=2;sketch=1;curveFitting=1;jiggle=2;" parent="4XMU_vUna-2bT30QGf2M-1" source="4XMU_vUna-2bT30QGf2M-5" target="4XMU_vUna-2bT30QGf2M-7" edge="1">
          <mxGeometry relative="1" as="geometry" />
        </mxCell>
        <mxCell id="4XMU_vUna-2bT30QGf2M-5" value="Poc.Gateway.API" style="rounded=1;whiteSpace=wrap;html=1;sketch=1;curveFitting=1;jiggle=2;fillColor=#1ba1e2;fontColor=#000000;strokeColor=#006EAF;fontSize=16;fontStyle=1" parent="4XMU_vUna-2bT30QGf2M-1" vertex="1">
          <mxGeometry x="210" y="180" width="160" height="60" as="geometry" />
        </mxCell>
        <mxCell id="4XMU_vUna-2bT30QGf2M-7" value="Poc.MKT.API" style="rounded=1;whiteSpace=wrap;html=1;sketch=1;curveFitting=1;jiggle=2;fillColor=#e3c800;fontColor=#000000;strokeColor=#B09500;fontSize=16;fontStyle=1" parent="4XMU_vUna-2bT30QGf2M-1" vertex="1">
          <mxGeometry x="441" y="181" width="120" height="60" as="geometry" />
        </mxCell>
        <mxCell id="4XMU_vUna-2bT30QGf2M-3" value="Models" style="rounded=1;whiteSpace=wrap;html=1;sketch=1;curveFitting=1;jiggle=2;fillColor=#008a00;fontColor=#000000;strokeColor=#005700;fontSize=16;fontStyle=1" parent="1" vertex="1">
          <mxGeometry x="50" y="300" width="120" height="60" as="geometry" />
        </mxCell>
        <mxCell id="4XMU_vUna-2bT30QGf2M-8" value="Poc.RH.API" style="rounded=1;whiteSpace=wrap;html=1;sketch=1;curveFitting=1;jiggle=2;fillColor=#e3c800;fontColor=#000000;strokeColor=#B09500;fontSize=16;fontStyle=1" parent="1" vertex="1">
          <mxGeometry x="481" y="381" width="120" height="60" as="geometry" />
        </mxCell>
        <mxCell id="4XMU_vUna-2bT30QGf2M-11" style="edgeStyle=orthogonalEdgeStyle;rounded=0;orthogonalLoop=1;jettySize=auto;html=1;entryX=0;entryY=0.5;entryDx=0;entryDy=0;fillColor=#1ba1e2;strokeColor=#006EAF;strokeWidth=2;sketch=1;curveFitting=1;jiggle=2;" parent="1" source="4XMU_vUna-2bT30QGf2M-5" target="4XMU_vUna-2bT30QGf2M-8" edge="1">
          <mxGeometry relative="1" as="geometry">
            <Array as="points">
              <mxPoint x="330" y="360" />
              <mxPoint x="446" y="360" />
              <mxPoint x="446" y="411" />
            </Array>
          </mxGeometry>
        </mxCell>
        <mxCell id="4XMU_vUna-2bT30QGf2M-12" value="Application Core Project" style="swimlane;whiteSpace=wrap;html=1;sketch=1;curveFitting=1;jiggle=2;fillColor=#f8cecc;strokeColor=#b85450;fontStyle=0" parent="1" vertex="1">
          <mxGeometry x="40" y="620" width="630" height="460" as="geometry" />
        </mxCell>
        <mxCell id="4XMU_vUna-2bT30QGf2M-19" value="Interfaces" style="rounded=1;whiteSpace=wrap;html=1;sketch=1;curveFitting=1;jiggle=2;fillColor=#008a00;fontColor=#000000;strokeColor=#005700;fontSize=16;fontStyle=1" parent="4XMU_vUna-2bT30QGf2M-12" vertex="1">
          <mxGeometry x="10" y="80" width="120" height="60" as="geometry" />
        </mxCell>
        <mxCell id="4XMU_vUna-2bT30QGf2M-22" value="Domain Events" style="rounded=1;whiteSpace=wrap;html=1;sketch=1;curveFitting=1;jiggle=2;fillColor=#008a00;fontColor=#000000;strokeColor=#005700;fontSize=16;fontStyle=1" parent="4XMU_vUna-2bT30QGf2M-12" vertex="1">
          <mxGeometry x="260" y="80" width="124" height="60" as="geometry" />
        </mxCell>
        <mxCell id="4XMU_vUna-2bT30QGf2M-20" value="Entities" style="rounded=1;whiteSpace=wrap;html=1;sketch=1;curveFitting=1;jiggle=2;fillColor=#008a00;fontColor=#000000;strokeColor=#005700;fontSize=16;fontStyle=1" parent="1" vertex="1">
          <mxGeometry x="50" y="840" width="120" height="60" as="geometry" />
        </mxCell>
        <mxCell id="4XMU_vUna-2bT30QGf2M-21" value="Busines Services" style="rounded=1;whiteSpace=wrap;html=1;sketch=1;curveFitting=1;jiggle=2;fillColor=#008a00;fontColor=#000000;strokeColor=#005700;fontSize=16;fontStyle=1" parent="1" vertex="1">
          <mxGeometry x="50" y="980" width="120" height="60" as="geometry" />
        </mxCell>
        <mxCell id="4XMU_vUna-2bT30QGf2M-23" value="Application Exceptons" style="rounded=1;whiteSpace=wrap;html=1;sketch=1;curveFitting=1;jiggle=2;fillColor=#008a00;fontColor=#000000;strokeColor=#005700;fontSize=16;fontStyle=1" parent="1" vertex="1">
          <mxGeometry x="300" y="840" width="120" height="60" as="geometry" />
        </mxCell>
        <mxCell id="4XMU_vUna-2bT30QGf2M-24" value="Value Objects" style="rounded=1;whiteSpace=wrap;html=1;sketch=1;curveFitting=1;jiggle=2;fillColor=#008a00;fontColor=#000000;strokeColor=#005700;fontSize=16;fontStyle=1" parent="1" vertex="1">
          <mxGeometry x="300" y="980" width="120" height="60" as="geometry" />
        </mxCell>
        <mxCell id="4XMU_vUna-2bT30QGf2M-25" value="Aggrecates" style="rounded=1;whiteSpace=wrap;html=1;sketch=1;curveFitting=1;jiggle=2;fillColor=#008a00;fontColor=#000000;strokeColor=#005700;fontSize=16;fontStyle=1" parent="1" vertex="1">
          <mxGeometry x="525" y="700" width="124" height="60" as="geometry" />
        </mxCell>
        <mxCell id="4XMU_vUna-2bT30QGf2M-26" value="Specifications" style="rounded=1;whiteSpace=wrap;html=1;sketch=1;curveFitting=1;jiggle=2;fillColor=#008a00;fontColor=#000000;strokeColor=#005700;fontSize=16;fontStyle=1" parent="1" vertex="1">
          <mxGeometry x="525" y="840" width="120" height="60" as="geometry" />
        </mxCell>
        <mxCell id="4XMU_vUna-2bT30QGf2M-28" value="API.NET Core Web APP" style="swimlane;whiteSpace=wrap;html=1;sketch=1;curveFitting=1;jiggle=2;fillColor=#d5e8d4;strokeColor=#82b366;fontStyle=0" parent="1" vertex="1">
          <mxGeometry x="800" y="80" width="630" height="410" as="geometry" />
        </mxCell>
        <mxCell id="4XMU_vUna-2bT30QGf2M-29" value="Redis" style="rounded=1;whiteSpace=wrap;html=1;sketch=1;curveFitting=1;jiggle=2;fillColor=#008a00;fontColor=#000000;strokeColor=#005700;fontSize=16;fontStyle=1" parent="4XMU_vUna-2bT30QGf2M-28" vertex="1">
          <mxGeometry x="10" y="90" width="120" height="60" as="geometry" />
        </mxCell>
        <mxCell id="4XMU_vUna-2bT30QGf2M-36" value="MongoDb" style="rounded=1;whiteSpace=wrap;html=1;sketch=1;curveFitting=1;jiggle=2;fillColor=#008a00;fontColor=#000000;strokeColor=#005700;fontSize=16;fontStyle=1" parent="4XMU_vUna-2bT30QGf2M-28" vertex="1">
          <mxGeometry x="10" y="301" width="120" height="60" as="geometry" />
        </mxCell>
        <mxCell id="4XMU_vUna-2bT30QGf2M-59" style="edgeStyle=orthogonalEdgeStyle;rounded=0;orthogonalLoop=1;jettySize=auto;html=1;fillColor=#d5e8d4;strokeColor=#82b366;strokeWidth=2;" parent="1" source="4XMU_vUna-2bT30QGf2M-35" target="4XMU_vUna-2bT30QGf2M-48" edge="1">
          <mxGeometry relative="1" as="geometry">
            <Array as="points">
              <mxPoint x="960" y="298" />
              <mxPoint x="960" y="524" />
              <mxPoint x="850" y="524" />
            </Array>
          </mxGeometry>
        </mxCell>
        <mxCell id="4XMU_vUna-2bT30QGf2M-35" value="SQL Database" style="rounded=1;whiteSpace=wrap;html=1;sketch=1;curveFitting=1;jiggle=2;fillColor=#008a00;fontColor=#000000;strokeColor=#005700;fontSize=16;fontStyle=1" parent="1" vertex="1">
          <mxGeometry x="810" y="268" width="120" height="60" as="geometry" />
        </mxCell>
        <mxCell id="4XMU_vUna-2bT30QGf2M-37" value="RabbetMQ" style="rounded=1;whiteSpace=wrap;html=1;sketch=1;curveFitting=1;jiggle=2;fillColor=#008a00;fontColor=#000000;strokeColor=#005700;fontSize=16;fontStyle=1" parent="1" vertex="1">
          <mxGeometry x="1040" y="381" width="120" height="60" as="geometry" />
        </mxCell>
        <mxCell id="4XMU_vUna-2bT30QGf2M-38" value="Kafka" style="rounded=1;whiteSpace=wrap;html=1;sketch=1;curveFitting=1;jiggle=2;fillColor=#008a00;fontColor=#000000;strokeColor=#005700;fontSize=16;fontStyle=1" parent="1" vertex="1">
          <mxGeometry x="1040" y="261" width="120" height="60" as="geometry" />
        </mxCell>
        <mxCell id="4XMU_vUna-2bT30QGf2M-39" value="Azure Functions" style="rounded=1;whiteSpace=wrap;html=1;sketch=1;curveFitting=1;jiggle=2;fillColor=#008a00;fontColor=#000000;strokeColor=#005700;fontSize=16;fontStyle=1" parent="1" vertex="1">
          <mxGeometry x="1040" y="171" width="120" height="60" as="geometry" />
        </mxCell>
        <mxCell id="4XMU_vUna-2bT30QGf2M-40" value="Other Web API clients" style="rounded=1;whiteSpace=wrap;html=1;sketch=1;curveFitting=1;jiggle=2;fillColor=#008a00;fontColor=#000000;strokeColor=#005700;fontSize=16;fontStyle=1" parent="1" vertex="1">
          <mxGeometry x="1280" y="381" width="120" height="60" as="geometry" />
        </mxCell>
        <mxCell id="4XMU_vUna-2bT30QGf2M-56" style="edgeStyle=orthogonalEdgeStyle;rounded=0;orthogonalLoop=1;jettySize=auto;html=1;fillColor=#d5e8d4;strokeColor=#82b366;strokeWidth=2;" parent="1" source="4XMU_vUna-2bT30QGf2M-41" target="4XMU_vUna-2bT30QGf2M-51" edge="1">
          <mxGeometry relative="1" as="geometry">
            <Array as="points">
              <mxPoint x="1250" y="291" />
              <mxPoint x="1250" y="471" />
              <mxPoint x="1270" y="471" />
            </Array>
          </mxGeometry>
        </mxCell>
        <mxCell id="4XMU_vUna-2bT30QGf2M-41" value="Email Service (Sendgrid, etc)" style="rounded=1;whiteSpace=wrap;html=1;sketch=1;curveFitting=1;jiggle=2;fillColor=#008a00;fontColor=#000000;strokeColor=#005700;fontSize=16;fontStyle=1" parent="1" vertex="1">
          <mxGeometry x="1280" y="261" width="120" height="60" as="geometry" />
        </mxCell>
        <mxCell id="4XMU_vUna-2bT30QGf2M-42" value="SMS Service (Twilio, ETC)" style="rounded=1;whiteSpace=wrap;html=1;sketch=1;curveFitting=1;jiggle=2;fillColor=#008a00;fontColor=#000000;strokeColor=#005700;fontSize=16;fontStyle=1" parent="1" vertex="1">
          <mxGeometry x="1280" y="171" width="120" height="60" as="geometry" />
        </mxCell>
        <mxCell id="4XMU_vUna-2bT30QGf2M-45" value="Data Sources" style="swimlane;whiteSpace=wrap;html=1;sketch=1;curveFitting=1;jiggle=2;fillColor=#f5f5f5;strokeColor=#666666;fontStyle=0;fontColor=#333333;" parent="1" vertex="1">
          <mxGeometry x="800" y="620" width="300" height="220" as="geometry" />
        </mxCell>
        <mxCell id="4XMU_vUna-2bT30QGf2M-48" value="SQL" style="shape=cylinder3;whiteSpace=wrap;html=1;boundedLbl=1;backgroundOutline=1;size=15;fillColor=#f5f5f5;fontColor=#333333;strokeColor=#666666;sketch=1;curveFitting=1;jiggle=2;" parent="4XMU_vUna-2bT30QGf2M-45" vertex="1">
          <mxGeometry x="20" y="100" width="60" height="80" as="geometry" />
        </mxCell>
        <mxCell id="4XMU_vUna-2bT30QGf2M-49" value="Redis" style="shape=cylinder3;whiteSpace=wrap;html=1;boundedLbl=1;backgroundOutline=1;size=15;fillColor=#f5f5f5;fontColor=#333333;strokeColor=#666666;sketch=1;curveFitting=1;jiggle=2;" parent="1" vertex="1">
          <mxGeometry x="920" y="720" width="60" height="80" as="geometry" />
        </mxCell>
        <mxCell id="4XMU_vUna-2bT30QGf2M-50" value="MongoDb" style="shape=cylinder3;whiteSpace=wrap;html=1;boundedLbl=1;backgroundOutline=1;size=15;fillColor=#f5f5f5;fontColor=#333333;strokeColor=#666666;sketch=1;curveFitting=1;jiggle=2;" parent="1" vertex="1">
          <mxGeometry x="1020" y="720" width="60" height="80" as="geometry" />
        </mxCell>
        <mxCell id="4XMU_vUna-2bT30QGf2M-51" value="Third Party Services" style="swimlane;whiteSpace=wrap;html=1;sketch=1;curveFitting=1;jiggle=2;fillColor=#f5f5f5;strokeColor=#666666;fontStyle=0;fontColor=#333333;" parent="1" vertex="1">
          <mxGeometry x="1120" y="620" width="300" height="220" as="geometry" />
        </mxCell>
        <mxCell id="4XMU_vUna-2bT30QGf2M-53" value="SendGrid API" style="ellipse;whiteSpace=wrap;html=1;aspect=fixed;" parent="4XMU_vUna-2bT30QGf2M-51" vertex="1">
          <mxGeometry x="30" y="80" width="80" height="80" as="geometry" />
        </mxCell>
        <mxCell id="4XMU_vUna-2bT30QGf2M-54" value="Twilio API" style="ellipse;whiteSpace=wrap;html=1;aspect=fixed;" parent="1" vertex="1">
          <mxGeometry x="1290" y="700" width="80" height="80" as="geometry" />
        </mxCell>
        <mxCell id="4XMU_vUna-2bT30QGf2M-55" style="edgeStyle=orthogonalEdgeStyle;rounded=0;orthogonalLoop=1;jettySize=auto;html=1;entryX=0.73;entryY=-0.009;entryDx=0;entryDy=0;entryPerimeter=0;fillColor=#d5e8d4;strokeColor=#82b366;strokeWidth=2;" parent="1" source="4XMU_vUna-2bT30QGf2M-40" target="4XMU_vUna-2bT30QGf2M-51" edge="1">
          <mxGeometry relative="1" as="geometry" />
        </mxCell>
        <mxCell id="4XMU_vUna-2bT30QGf2M-57" style="edgeStyle=orthogonalEdgeStyle;rounded=0;orthogonalLoop=1;jettySize=auto;html=1;entryX=0.327;entryY=-0.023;entryDx=0;entryDy=0;entryPerimeter=0;fillColor=#d5e8d4;strokeColor=#82b366;strokeWidth=2;" parent="1" source="4XMU_vUna-2bT30QGf2M-42" target="4XMU_vUna-2bT30QGf2M-51" edge="1">
          <mxGeometry relative="1" as="geometry">
            <Array as="points">
              <mxPoint x="1220" y="201" />
              <mxPoint x="1220" y="426" />
              <mxPoint x="1218" y="426" />
            </Array>
          </mxGeometry>
        </mxCell>
        <mxCell id="4XMU_vUna-2bT30QGf2M-58" style="edgeStyle=orthogonalEdgeStyle;rounded=0;orthogonalLoop=1;jettySize=auto;html=1;fillColor=#d5e8d4;strokeColor=#82b366;strokeWidth=2;entryX=0.317;entryY=0.038;entryDx=0;entryDy=0;entryPerimeter=0;" parent="1" source="4XMU_vUna-2bT30QGf2M-36" target="4XMU_vUna-2bT30QGf2M-50" edge="1">
          <mxGeometry relative="1" as="geometry">
            <Array as="points">
              <mxPoint x="1020" y="411" />
              <mxPoint x="1020" y="723" />
            </Array>
          </mxGeometry>
        </mxCell>
        <mxCell id="4XMU_vUna-2bT30QGf2M-60" style="edgeStyle=orthogonalEdgeStyle;rounded=0;orthogonalLoop=1;jettySize=auto;html=1;entryX=0.75;entryY=0.038;entryDx=0;entryDy=0;entryPerimeter=0;fillColor=#d5e8d4;strokeColor=#82b366;strokeWidth=2;" parent="1" source="4XMU_vUna-2bT30QGf2M-29" target="4XMU_vUna-2bT30QGf2M-49" edge="1">
          <mxGeometry relative="1" as="geometry">
            <Array as="points">
              <mxPoint x="1000" y="200" />
              <mxPoint x="1000" y="475" />
              <mxPoint x="970" y="475" />
              <mxPoint x="970" y="723" />
            </Array>
          </mxGeometry>
        </mxCell>
      </root>
    </mxGraphModel>
  </diagram>
</mxfile>
